<svg width="158" height="209" viewBox="0 0 158 209" fill="none" xmlns="http://www.w3.org/2000/svg">
<path d="M15.5 12.5L28 0H158V209H0V28L15.5 12.5Z" fill="#D9D9D9"/>
<path fill-rule="evenodd" clip-rule="evenodd" d="M61.7676 119.872C64.4816 126.176 70.0415 130.741 78.6455 130.741C87.4498 130.741 94.0024 125.633 94.0002 115.824C94.0002 106.725 89.565 102.672 81.6873 98.7024L79.3718 97.5353C75.4011 95.5115 73.6798 94.1891 73.6798 90.9205C73.6798 88.286 75.4011 86.2622 78.115 86.2622C80.7695 86.2622 82.4819 87.5742 84.0712 90.9205L91.2995 85.4574C88.251 79.1532 84.0183 77 78.126 77C69.8522 77 64.5586 82.9677 64.5586 91.1379C64.5586 100.012 68.9916 104.215 75.6784 107.558L77.9939 108.728C82.231 110.918 84.5267 112.24 84.5267 115.974C84.5267 119.088 82.2971 121.086 78.4584 121.086C73.8911 121.086 71.3049 118.544 69.3239 114.73L61.7676 119.872Z" fill="#007EF2"/>
<path d="M113.874 130.741C105.27 130.741 99.7101 126.176 96.9961 119.872L104.552 114.73C106.533 118.544 109.12 121.086 113.687 121.086C117.526 121.086 119.755 119.088 119.755 115.974C119.755 112.24 117.46 110.918 113.222 108.728L110.907 107.558C104.22 104.215 99.7872 100.012 99.7872 91.1379C99.7872 82.9677 105.081 77 113.354 77C119.247 77 123.479 79.1532 126.528 85.4574L119.3 90.9205C117.71 87.5742 115.998 86.2622 113.343 86.2622C110.63 86.2622 108.908 88.286 108.908 90.9205C108.908 94.1891 110.63 95.5115 114.6 97.5353L116.916 98.7024C124.793 102.672 129.229 106.725 129.229 115.824C129.231 125.633 122.678 130.741 113.874 130.741Z" fill="#007EF2"/>
<path d="M28 28L0 28L28 0L28 28Z" fill="#989898"/>
<path d="M56.3745 89.7756C54.3273 84.6798 51.2391 80.7801 47.5966 78.6915C43.9542 76.6028 39.9648 76.444 36.2575 78.24C32.5501 80.0361 29.3356 83.6848 27.1208 88.611C24.906 93.5372 23.8169 99.4605 24.0252 105.447C24.2334 111.434 25.7273 117.143 28.2711 121.675C30.815 126.208 34.2642 129.304 38.0749 130.478C41.8856 131.651 45.841 130.834 49.3176 128.156C52.7942 125.478 55.5941 121.091 57.276 115.686L50.8675 110.939C49.8689 114.148 48.2063 116.753 46.142 118.344C44.0776 119.934 41.729 120.419 39.4662 119.722C37.2035 119.025 35.1554 117.186 33.6449 114.495C32.1344 111.804 31.2474 108.414 31.1237 104.859C31 101.305 31.6467 97.7873 32.9618 94.8622C34.2769 91.9372 36.1857 89.7706 38.3871 88.7041C40.5884 87.6377 42.9573 87.732 45.1201 88.9722C47.2829 90.2124 49.1167 92.5279 50.3322 95.5538L56.3745 89.7756Z" fill="#007EF2"/>
</svg>
