<svg width="333" height="587" viewBox="0 0 333 587" fill="none" xmlns="http://www.w3.org/2000/svg">
<path d="M103.5 12.5L116 0H246V209H88V28L103.5 12.5Z" fill="#D9D9D9"/>
<path fill-rule="evenodd" clip-rule="evenodd" d="M130.9 131C139.108 131 144.778 125.498 144.778 114.212V77.9809H135.093V114.424C135.093 119.872 132.923 121.272 130.281 121.272C127.222 121.272 126.085 118.89 124.705 116.003C124.652 115.892 124.599 115.781 124.545 115.669L117 121.039C119.183 126.487 123.487 131 130.9 131ZM149.767 119.872C152.481 126.176 158.041 130.741 166.645 130.741C175.45 130.741 182.002 125.633 182 115.824C182 106.725 177.565 102.672 169.687 98.7024L167.372 97.5353C163.401 95.5115 161.68 94.1891 161.68 90.9205C161.68 88.286 163.401 86.2622 166.115 86.2622C168.769 86.2622 170.482 87.5742 172.071 90.9205L179.299 85.4574C176.251 79.1532 172.018 77 166.126 77C157.852 77 152.558 82.9677 152.558 91.1379C152.558 100.012 156.991 104.215 163.678 107.558L165.994 108.728C170.231 110.918 172.526 112.24 172.526 115.974C172.526 119.088 170.297 121.086 166.458 121.086C161.891 121.086 159.305 118.544 157.324 114.73L149.767 119.872Z" fill="#C4AE00"/>
<path d="M201.874 130.741C193.27 130.741 187.71 126.176 184.996 119.872L192.552 114.73C194.533 118.544 197.12 121.086 201.687 121.086C205.526 121.086 207.755 119.088 207.755 115.974C207.755 112.24 205.46 110.918 201.222 108.728L198.907 107.558C192.22 104.215 187.787 100.012 187.787 91.1379C187.787 82.9677 193.081 77 201.354 77C207.247 77 211.479 79.1532 214.528 85.4574L207.3 90.9205C205.71 87.5742 203.998 86.2622 201.343 86.2622C198.63 86.2622 196.908 88.286 196.908 90.9205C196.908 94.1891 198.63 95.5115 202.6 97.5353L204.916 98.7024C212.793 102.672 217.229 106.725 217.229 115.824C217.231 125.633 210.678 130.741 201.874 130.741Z" fill="#007EF2"/>
<path d="M116 28L88 28L116 0V28Z" fill="#989898"/>
<path d="M190.5 390.5L203 378H333V587H175V406L190.5 390.5Z" fill="#D9D9D9"/>
<path fill-rule="evenodd" clip-rule="evenodd" d="M236.768 497.872C239.482 504.176 245.041 508.741 253.646 508.741C262.45 508.741 269.002 503.633 269 493.824C269 484.725 264.565 480.672 256.687 476.702L254.372 475.535C250.401 473.512 248.68 472.189 248.68 468.921C248.68 466.286 250.401 464.262 253.115 464.262C255.77 464.262 257.482 465.574 259.071 468.921L266.299 463.457C263.251 457.153 259.018 455 253.126 455C244.852 455 239.559 460.968 239.559 469.138C239.559 478.012 243.992 482.215 250.678 485.558L252.994 486.728C257.231 488.918 259.527 490.24 259.527 493.974C259.527 497.088 257.297 499.086 253.458 499.086C248.891 499.086 246.305 496.544 244.324 492.73L236.768 497.872Z" fill="#007EF2"/>
<path d="M288.874 508.741C280.27 508.741 274.71 504.176 271.996 497.872L279.552 492.73C281.533 496.544 284.12 499.086 288.687 499.086C292.526 499.086 294.755 497.088 294.755 493.974C294.755 490.24 292.46 488.918 288.222 486.728L285.907 485.558C279.22 482.215 274.787 478.012 274.787 469.138C274.787 460.968 280.081 455 288.354 455C294.247 455 298.479 457.153 301.528 463.457L294.3 468.921C292.71 465.574 290.998 464.262 288.343 464.262C285.63 464.262 283.908 466.286 283.908 468.921C283.908 472.189 285.63 473.512 289.6 475.535L291.916 476.702C299.793 480.672 304.229 484.725 304.229 493.824C304.231 503.633 297.678 508.741 288.874 508.741Z" fill="#007EF2"/>
<path d="M203 406H175L203 378V406Z" fill="#989898"/>
<path d="M231.374 467.776C229.327 462.68 226.239 458.78 222.597 456.691C218.954 454.603 214.965 454.444 211.257 456.24C207.55 458.036 204.336 461.685 202.121 466.611C199.906 471.537 198.817 477.461 199.025 483.447C199.233 489.434 200.727 495.143 203.271 499.675C205.815 504.208 209.264 507.304 213.075 508.478C216.886 509.651 220.841 508.834 224.318 506.156C227.794 503.478 230.594 499.091 232.276 493.686L225.868 488.939C224.869 492.148 223.206 494.753 221.142 496.344C219.078 497.934 216.729 498.419 214.466 497.722C212.203 497.025 210.155 495.186 208.645 492.495C207.134 489.804 206.247 486.414 206.124 482.859C206 479.305 206.647 475.787 207.962 472.862C209.277 469.937 211.186 467.771 213.387 466.704C215.588 465.638 217.957 465.732 220.12 466.972C222.283 468.212 224.117 470.528 225.332 473.554L231.374 467.776Z" fill="#007EF2"/>
<path d="M15.5 390.5L28 378H158V587H0V406L15.5 390.5Z" fill="#D9D9D9"/>
<path fill-rule="evenodd" clip-rule="evenodd" d="M59.8998 509C68.1076 509 73.7775 503.498 73.7775 492.212V455.981H64.0929V492.424C64.0929 497.872 61.9226 499.272 59.2813 499.272C56.2222 499.272 55.0845 496.89 53.7049 494.003C53.6521 493.892 53.5989 493.781 53.5453 493.669L46 499.039C48.1835 504.487 52.4866 509 59.8998 509ZM78.7674 497.872C81.4814 504.176 87.0412 508.741 95.6453 508.741C104.45 508.741 111.002 503.633 111 493.824C111 484.725 106.565 480.672 98.6871 476.702L96.3716 475.535C92.4009 473.512 90.6796 472.189 90.6796 468.921C90.6796 466.286 92.4009 464.262 95.1147 464.262C97.7693 464.262 99.4817 465.574 101.071 468.921L108.299 463.457C105.251 457.153 101.018 455 95.1258 455C86.852 455 81.5584 460.968 81.5584 469.138C81.5584 478.012 85.9914 482.215 92.6781 485.558L94.9937 486.728C99.2308 488.918 101.526 490.24 101.526 493.974C101.526 497.088 99.2968 499.086 95.4582 499.086C90.8909 499.086 88.3046 496.544 86.3237 492.73L78.7674 497.872Z" fill="#C4AE00"/>
<path d="M28 406H0L28 378L28 406Z" fill="#989898"/>
<path d="M95.9504 228H110.95L111.296 331.526H127.5L103.95 359.5L79 331.526H95.9504V228Z" fill="#CACACA"/>
<path d="M221.95 228H236.95L237.296 331.526H253.5L229.95 359.5L205 331.526H221.95V228Z" fill="#CACACA"/>
</svg>
