<svg width="158" height="209" viewBox="0 0 158 209" fill="none" xmlns="http://www.w3.org/2000/svg">
<path d="M15.5 12.5L28 0H158V209H0V28L15.5 12.5Z" fill="#D9D9D9"/>
<path fill-rule="evenodd" clip-rule="evenodd" d="M59.8998 131C68.1076 131 73.7775 125.498 73.7775 114.212V77.9809H64.0929V114.424C64.0929 119.872 61.9226 121.272 59.2813 121.272C56.2222 121.272 55.0845 118.89 53.7049 116.003C53.6521 115.892 53.5989 115.781 53.5453 115.669L46 121.039C48.1835 126.487 52.4866 131 59.8998 131ZM78.7674 119.872C81.4814 126.176 87.0412 130.741 95.6453 130.741C104.45 130.741 111.002 125.633 111 115.824C111 106.725 106.565 102.672 98.6871 98.7024L96.3716 97.5353C92.4009 95.5115 90.6796 94.1891 90.6796 90.9205C90.6796 88.286 92.4009 86.2622 95.1147 86.2622C97.7693 86.2622 99.4817 87.5742 101.071 90.9205L108.299 85.4574C105.251 79.1532 101.018 77 95.1258 77C86.852 77 81.5584 82.9677 81.5584 91.1379C81.5584 100.012 85.9914 104.215 92.6781 107.558L94.9937 108.728C99.2308 110.918 101.526 112.24 101.526 115.974C101.526 119.088 99.2968 121.086 95.4582 121.086C90.8909 121.086 88.3046 118.544 86.3237 114.73L78.7674 119.872Z" fill="#C4AE00"/>
<path d="M28 28L0 28L28 0L28 28Z" fill="#989898"/>
</svg>
