<svg width="951" height="876" viewBox="0 0 951 876" fill="none" xmlns="http://www.w3.org/2000/svg">
<path d="M585.893 662.847L594.541 657.656L654.243 621.819L663.755 616.109L669.383 625.669C676.722 638.135 684.722 647.716 694.447 654.227C704.018 660.636 715.966 664.546 732.074 664.546C745.72 664.546 755.1 661.395 760.788 657.096C766.13 653.06 769.02 647.456 769.02 639.925C769.02 630.213 765.957 624.426 759.612 618.994C752.316 612.747 741.004 607.257 723.884 599.453C723.87 599.447 723.857 599.441 723.843 599.435L705.671 591.338C705.664 591.335 705.658 591.332 705.651 591.329C678.691 579.436 654.956 565.478 638.009 545.656C620.76 525.481 611.254 500.079 611.254 466.836C611.254 435.57 622.796 407.957 643.802 388.206C664.771 368.489 694.406 357.307 729.448 357.307C753.865 357.307 775.825 361.237 795.124 371.614C814.531 382.049 830.316 398.502 843.176 421.96L848.025 430.805L839.632 436.401L782.522 474.474L772.465 481.179L766.735 470.536C760.9 459.7 755.402 453.246 749.82 449.412C744.45 445.725 738.122 443.857 729.361 443.857C721.101 443.857 715.184 446.533 711.407 450.15C707.635 453.761 705.32 458.94 705.32 465.321C705.32 473.952 707.66 478.968 712.594 483.627C718.379 489.091 727.953 494.262 743.782 501.379C743.788 501.382 743.795 501.385 743.802 501.388L762.054 509.503C762.054 509.503 762.055 509.503 762.055 509.504C793.475 523.47 819.595 538.214 837.757 558.468C856.355 579.209 865.868 604.857 865.868 638.876L585.893 662.847ZM585.893 662.847L590.317 671.912M585.893 662.847L590.317 671.912M590.317 671.912C613.701 719.825 661.596 753.837 733.552 753.837M590.317 671.912L733.552 753.837M733.552 753.837C770.068 753.837 803.086 744.504 827.207 725.055M733.552 753.837L827.207 725.055M827.207 725.055C851.633 705.36 865.877 676.118 865.868 638.879L827.207 725.055ZM571.778 551.365V11H939.5V288.414L885.399 794.995L575.368 864.643L406.444 815H560.778H571.778V804L571.778 766.104V761.134L571.778 748L571.778 708.754L571.778 644.094V551.365Z" stroke="white" stroke-width="22"/>
<path d="M284.372 661.77L291.86 657.286L351.554 621.537L359.757 616.625L364.617 624.859C372.02 637.404 380.156 647.162 390.131 653.826C399.975 660.401 412.222 664.374 428.597 664.374C442.452 664.374 452.19 661.184 458.22 656.638C463.949 652.319 467.037 646.289 467.037 638.341C467.037 628.22 463.781 622.043 457.115 616.35C449.625 609.953 438.096 604.39 421.028 596.629C421.017 596.624 421.006 596.619 420.996 596.614L402.809 588.53C402.807 588.529 402.804 588.527 402.801 588.526C375.917 576.696 352.421 562.881 335.689 543.357C318.696 523.528 309.289 498.536 309.289 465.681C309.289 434.859 320.688 407.711 341.37 388.31C362.018 368.941 391.261 357.896 425.971 357.896C450.227 357.896 471.915 361.791 490.922 371.987C510.023 382.233 525.617 398.413 538.367 421.615L542.571 429.266L535.302 434.101L478.199 472.08L469.525 477.849L464.577 468.682C458.685 457.763 453.05 451.101 447.198 447.091C441.527 443.207 434.884 441.286 425.885 441.286C417.283 441.286 410.977 444.073 406.887 447.979C402.805 451.879 400.347 457.437 400.347 464.17C400.347 473.141 402.826 478.541 408.082 483.493C414.075 489.14 423.875 494.388 439.682 501.478C439.688 501.481 439.695 501.484 439.701 501.487L457.957 509.584C457.957 509.585 457.958 509.585 457.958 509.585C489.332 523.498 515.203 538.101 533.144 558.061C551.463 578.442 560.876 603.664 560.877 637.295L284.372 661.77ZM284.372 661.77L288.207 669.61M284.372 661.77L288.207 669.61M288.207 669.61C311.33 716.876 358.681 750.498 430.075 750.498M288.207 669.61L430.075 750.498M430.075 750.498C466.345 750.498 498.99 741.248 522.769 722.12M430.075 750.498L522.769 722.12M522.769 722.12C546.814 702.779 560.885 674.043 560.877 637.298L522.769 722.12ZM32.8375 665.498L25.7854 669.915L29.2345 677.487C47.777 718.198 84.8334 752.297 147.688 752.297C181.955 752.297 212.035 742.159 233.549 720.571C255.076 698.971 266.821 667.116 266.821 626.089V374.214V364.714H257.321H180.812H171.312V374.214V627.565C171.312 645.284 167.277 654.313 162.785 658.982C158.392 663.549 151.896 665.669 142.801 665.669C133.013 665.669 127 662.39 121.928 657.059C116.576 651.434 112.362 643.685 106.87 633.586C106.529 632.958 106.182 632.321 105.83 631.674L101.001 622.808L92.4449 628.167L32.8375 665.498ZM9.5 813V9.5H565.5V813H9.5Z" stroke="white" stroke-width="19"/>
</svg>
