<svg width="1060" height="876" viewBox="0 0 1060 876" fill="none" xmlns="http://www.w3.org/2000/svg">
<path d="M680.194 663.232L688.056 658.513L747.757 622.676L756.404 617.485L761.521 626.177C768.905 638.718 776.998 648.434 786.89 655.058C796.644 661.589 808.79 665.546 825.074 665.546C838.858 665.546 848.475 662.365 854.391 657.894C859.992 653.661 863.02 647.758 863.02 639.925C863.02 629.913 859.824 623.851 853.263 618.234C845.837 611.877 834.38 606.33 817.295 598.542C817.283 598.536 817.27 598.53 817.258 598.525L799.075 590.423C799.069 590.42 799.063 590.417 799.057 590.415C772.146 578.544 748.572 564.659 731.769 545.007C714.691 525.032 705.254 499.868 705.254 466.836C705.254 435.824 716.697 408.482 737.487 388.935C758.243 369.418 787.621 358.307 822.448 358.307C846.761 358.307 868.544 362.221 887.651 372.495C906.856 382.821 922.513 399.118 935.299 422.441L939.707 430.482L932.077 435.569L874.967 473.642L865.824 479.737L860.615 470.062C854.74 459.151 849.15 452.546 843.386 448.588C837.816 444.763 831.279 442.857 822.361 442.857C813.877 442.857 807.702 445.61 803.715 449.428C799.734 453.239 797.32 458.686 797.32 465.321C797.32 474.203 799.756 479.49 804.907 484.354C810.832 489.95 820.558 495.181 836.374 502.292C836.38 502.295 836.386 502.297 836.392 502.3L854.648 510.417C886.041 524.372 911.997 539.045 930.012 559.136C948.423 579.668 957.868 605.068 957.868 638.877L680.194 663.232ZM680.194 663.232L684.216 671.473M680.194 663.232L684.216 671.473M684.216 671.473C707.423 719.025 754.957 752.837 826.552 752.837M684.216 671.473L826.552 752.837M826.552 752.837C862.911 752.837 895.684 743.543 919.579 724.276M826.552 752.837L919.579 724.276M919.579 724.276C943.751 704.786 957.877 675.84 957.868 638.879L919.579 724.276ZM663.778 551.365V10H1050V305.959L996.839 795.727L668.391 865.692L492.495 814H653.778H663.778V804L663.778 766.104V761.134L663.778 748L663.778 708.754L663.778 644.094V551.365Z" stroke="black" stroke-width="20"/>
<path d="M320.721 661.577L328.603 656.857L388.298 621.108L396.932 615.937L402.047 624.605C409.428 637.112 417.518 646.803 427.409 653.41C437.162 659.925 449.31 663.874 465.597 663.874C479.384 663.874 489.003 660.699 494.919 656.239C500.518 652.018 503.537 646.138 503.537 638.341C503.537 628.37 500.349 622.331 493.79 616.73C486.366 610.389 474.911 604.855 457.828 597.087C457.815 597.081 457.802 597.075 457.789 597.069L439.608 588.987C439.601 588.984 439.594 588.981 439.588 588.978C412.683 577.138 389.111 563.288 372.31 543.682C355.23 523.753 345.789 498.642 345.789 465.681C345.789 434.731 357.238 407.448 378.028 387.946C398.783 368.476 428.154 357.396 462.971 357.396C487.278 357.396 509.055 361.299 528.158 371.546C547.36 381.847 563.018 398.104 575.805 421.375L580.23 429.428L572.579 434.517L515.475 472.496L506.345 478.569L501.137 468.919C495.265 458.038 489.677 451.452 483.915 447.504C478.345 443.688 471.806 441.786 462.885 441.786C454.395 441.786 448.218 444.535 444.233 448.341C440.255 452.14 437.847 457.564 437.847 464.17C437.847 473.016 440.278 478.28 445.424 483.129C451.349 488.711 461.074 493.929 476.889 501.023C476.895 501.026 476.9 501.028 476.906 501.031L495.16 509.127C526.548 523.047 552.501 537.684 570.516 557.727C588.929 578.212 598.376 603.558 598.377 637.295L320.721 661.577ZM320.721 661.577L324.758 669.83M320.721 661.577L324.758 669.83M324.758 669.83C347.969 717.277 395.501 750.998 467.075 750.998M324.758 669.83L467.075 750.998M467.075 750.998C503.424 750.998 536.19 741.729 560.083 722.51M467.075 750.998L560.083 722.51M560.083 722.51C584.254 703.066 598.385 674.182 598.377 637.298L560.083 722.51ZM69.5721 665.075L62.1489 669.724L65.7794 677.695C84.39 718.555 121.608 752.797 184.688 752.797C219.052 752.797 249.273 742.629 270.903 720.924C292.547 699.206 304.321 667.211 304.321 626.089V374.214V364.214H294.321H217.812H207.812V374.214V627.565C207.812 645.22 203.79 654.098 199.425 658.636C195.164 663.066 188.826 665.169 179.801 665.169C170.158 665.169 164.274 661.952 159.29 656.714C153.985 651.139 149.802 643.446 144.294 633.318C143.957 632.699 143.616 632.072 143.269 631.435L138.186 622.102L129.179 627.743L69.5721 665.075ZM10 411.25V10H336.25H662.5V411.25V812.5H336.25H10V411.25Z" stroke="black" stroke-width="20"/>
</svg>
