<svg width="158" height="209" viewBox="0 0 158 209" fill="none" xmlns="http://www.w3.org/2000/svg">
<path d="M15.5 12.5L28 0H158V209H0V28L15.5 12.5Z" fill="#D9D9D9"/>
<path fill-rule="evenodd" clip-rule="evenodd" d="M42.8998 131C51.1076 131 56.7775 125.498 56.7775 114.212V77.9809H47.0929V114.424C47.0929 119.872 44.9226 121.272 42.2813 121.272C39.2222 121.272 38.0845 118.89 36.7049 116.003C36.6521 115.892 36.5989 115.781 36.5453 115.669L29 121.039C31.1835 126.487 35.4866 131 42.8998 131ZM61.7674 119.872C64.4814 126.176 70.0412 130.741 78.6453 130.741C87.4496 130.741 94.0022 125.633 94 115.824C94 106.725 89.5648 102.672 81.6871 98.7024L79.3716 97.5353C75.4009 95.5115 73.6796 94.1891 73.6796 90.9205C73.6796 88.286 75.4009 86.2622 78.1147 86.2622C80.7693 86.2622 82.4817 87.5742 84.0709 90.9205L91.2993 85.4574C88.2508 79.1532 84.0181 77 78.1258 77C69.852 77 64.5584 82.9677 64.5584 91.1379C64.5584 100.012 68.9914 104.215 75.6781 107.558L77.9937 108.728C82.2308 110.918 84.5265 112.24 84.5265 115.974C84.5265 119.088 82.2968 121.086 78.4582 121.086C73.8909 121.086 71.3046 118.544 69.3237 114.73L61.7674 119.872Z" fill="#C4AE00"/>
<path d="M113.874 130.741C105.27 130.741 99.7101 126.176 96.9961 119.872L104.552 114.73C106.533 118.544 109.12 121.086 113.687 121.086C117.526 121.086 119.755 119.088 119.755 115.974C119.755 112.24 117.46 110.918 113.222 108.728L110.907 107.558C104.22 104.215 99.7872 100.012 99.7872 91.1379C99.7872 82.9677 105.081 77 113.354 77C119.247 77 123.479 79.1532 126.528 85.4574L119.3 90.9205C117.71 87.5742 115.998 86.2622 113.343 86.2622C110.63 86.2622 108.908 88.286 108.908 90.9205C108.908 94.1891 110.63 95.5115 114.6 97.5353L116.916 98.7024C124.793 102.672 129.229 106.725 129.229 115.824C129.231 125.633 122.678 130.741 113.874 130.741Z" fill="#007EF2"/>
<path d="M28 28L0 28L28 0L28 28Z" fill="#989898"/>
</svg>
